<?xml version="1.0" standalone="no"?>
<!DOCTYPE svg PUBLIC "-//W3C//DTD SVG 20010904//EN"
 "http://www.w3.org/TR/2001/REC-SVG-20010904/DTD/svg10.dtd">
<svg version="1.0" xmlns="http://www.w3.org/2000/svg"
 width="460.000000pt" height="460.000000pt" viewBox="0 0 460.000000 460.000000"
 preserveAspectRatio="xMidYMid meet">
<metadata>
Created by potrace 1.14, written by Peter Selinger 2001-2017
</metadata>
<g transform="translate(0.000000,460.000000) scale(0.100000,-0.100000)"
fill="#000000" stroke="none">
<path d="M1383 2635 c-116 -18 -212 -65 -273 -132 -119 -135 -116 -347 7 -469
145 -141 474 -148 720 -14 77 42 175 142 191 196 15 52 15 106 0 155 -18 61
-106 151 -188 193 -82 41 -123 53 -245 72 -104 16 -104 16 -212 -1z m106 -95
c-8 -5 -48 -18 -88 -29 -40 -11 -93 -33 -118 -48 -86 -54 -143 -82 -143 -71 0
27 106 113 165 135 61 22 219 33 184 13z"/>
<path d="M2755 2635 c-108 -17 -149 -29 -224 -65 -75 -37 -172 -129 -192 -183
-14 -40 -24 -44 -53 -22 -24 18 -96 29 -138 21 -46 -9 -103 -45 -91 -57 7 -7
22 -3 44 10 44 27 122 28 171 2 19 -11 39 -17 42 -14 3 4 6 -14 6 -38 0 -126
135 -257 332 -323 172 -57 366 -56 493 3 82 38 116 69 156 143 32 59 34 68 33
158 0 81 -4 103 -26 150 -53 114 -169 187 -338 215 -108 17 -107 17 -215 0z
m75 -90 c0 -2 -33 -14 -72 -26 -104 -30 -124 -38 -171 -73 -55 -41 -117 -69
-117 -53 0 25 107 112 166 134 53 19 194 33 194 18z"/>
<path d="M451 2397 c-35 -17 -50 -45 -32 -57 10 -6 23 -2 39 11 37 29 45 28
387 -30 66 -12 127 -21 136 -21 16 0 34 28 25 37 -2 2 -75 15 -163 28 -87 13
-182 29 -212 35 -72 13 -151 13 -180 -3z"/>
<path d="M3675 2391 c-49 -10 -133 -23 -185 -30 -134 -18 -139 -19 -133 -42 6
-23 10 -23 158 2 341 57 351 58 386 30 26 -19 49 -18 49 4 0 8 -12 23 -26 34
-34 26 -119 27 -249 2z"/>
<path d="M2822 1675 c-151 -154 -356 -257 -588 -296 -68 -11 -225 -8 -318 7
-30 5 -38 3 -34 -7 3 -9 38 -19 104 -28 228 -32 507 39 714 183 62 43 210 182
210 197 0 24 -24 9 -88 -56z"/>
</g>
</svg>
